<svg
  xmlns="http://www.w3.org/2000/svg"
  viewBox="0 0 24 24"
  fill="currentColor"
>
  <path
    d="M22.46 6c-.77.35-1.6.59-2.47.69.89-.53 1.56-1.38 1.88-2.4-.83.49-1.76.85-2.75 1.04-.78-.83-1.88-1.34-3.1-1.34-2.35 0-4.26 1.91-4.26 4.26 0 .33.04.65.11.96-3.54-.18-6.68-1.87-8.78-4.44-.37.64-.58 1.38-.58 2.17 0 1.5.76 2.82 1.91 3.6-.71-.02-1.38-.22-1.97-.55v.05c0 2.1 1.5 3.85 3.5 4.25-.36.1-.75.15-1.15.15-.28 0-.55-.03-.82-.07.56 1.76 2.17 3.04 4.09 3.08-1.5 1.17-3.38 1.87-5.43 1.87-.35 0-.7-.02-1.04-.06 1.94 1.24 4.26 1.96 6.75 1.96 8.1 0 12.53-6.71 12.53-12.53 0-.19-.01-.39-.02-.58.86-.62 1.61-1.4 2.2-2.28z"
  />
</svg>